<?xml version="1.0" standalone="no"?>
<!DOCTYPE svg PUBLIC "-//W3C//DTD SVG 20010904//EN"
 "http://www.w3.org/TR/2001/REC-SVG-20010904/DTD/svg10.dtd">
<svg version="1.0" xmlns="http://www.w3.org/2000/svg"
 width="300.000000pt" height="300.000000pt" viewBox="0 0 300.000000 300.000000"
 preserveAspectRatio="xMidYMid meet">
<metadata>
Created by potrace 1.10, written by Peter Selinger 2001-2011
</metadata>
<g transform="translate(0.000000,300.000000) scale(0.100000,-0.100000)"
fill="#ffffff" stroke="none">
<path d="M1171 1777 c-29 -10 -45 -31 -111 -142 -185 -312 -240 -407 -240
-411 0 -3 35 -4 77 -2 l78 3 23 43 c13 23 21 42 18 42 -2 0 -15 -18 -27 -40
l-23 -40 -67 0 -67 0 148 251 c81 138 156 259 166 270 20 22 82 26 106 7 8 -7
25 -30 37 -50 31 -52 38 -48 9 4 -13 22 -36 49 -53 60 -35 21 -30 20 -74 5z"/>
<path d="M1470 1720 c0 -55 5 -68 57 -155 31 -53 60 -98 65 -101 4 -3 8 29 8
70 l0 76 99 -80 c54 -44 103 -80 108 -80 10 0 140 99 188 143 20 18 20 17 23
-177 l2 -196 65 0 65 0 0 280 0 280 -67 0 -68 -1 -104 -84 -103 -84 -44 36
c-24 19 -44 31 -44 27 1 -5 21 -24 45 -42 l45 -32 105 85 105 85 60 0 60 0 0
-270 0 -270 -55 0 -55 0 0 195 c0 107 -4 195 -9 195 -4 0 -53 -36 -107 -80
-54 -44 -102 -80 -106 -80 -4 0 -52 36 -106 80 -55 44 -102 80 -105 80 -3 0
-7 -30 -9 -67 l-3 -68 -52 91 c-45 78 -53 99 -53 143 l0 51 56 0 c51 0 61 -4
115 -46 32 -25 59 -42 59 -37 -1 4 -26 27 -57 51 -53 39 -61 42 -120 42 l-63
0 0 -60z"/>
<path d="M1338 1628 c11 -18 43 -72 72 -120 28 -49 54 -88 56 -88 6 0 10 -8
-70 128 -38 61 -70 112 -73 112 -2 0 4 -15 15 -32z"/>
<path d="M1186 1605 c-23 -35 -66 -113 -66 -119 0 -3 5 -6 12 -6 6 0 8 3 5 6
-6 6 31 79 56 112 7 9 18 -2 43 -40 18 -29 34 -56 34 -60 0 -4 -19 -5 -42 -3
-30 2 -37 1 -23 -5 25 -11 73 -12 78 -2 2 4 -15 37 -38 75 l-43 67 -16 -25z"/>
<path d="M1472 1405 c3 -5 26 -45 52 -87 25 -43 46 -80 46 -83 0 -3 -29 -5
-64 -5 l-65 0 -43 71 -43 70 -152 2 -152 2 -16 -30 c-15 -28 -15 -29 1 -7 16
21 22 22 168 22 l151 -1 40 -69 40 -70 73 0 c52 0 72 4 72 13 0 13 -84 154
-103 172 -6 7 -8 7 -5 0z"/>
</g>
</svg>
